<svg xmlns:xlink="http://www.w3.org/1999/xlink" xmlns="http://www.w3.org/2000/svg" width="14" height="14" viewBox="0 0 24 24"><g fill="none" fill-rule="evenodd"><path fill="#3E4152" d="M3.438 9.754a6.415 6.415 0 016.408-6.409 6.415 6.415 0 016.409 6.409 6.416 6.416 0 01-6.409 6.408 6.416 6.416 0 01-6.408-6.408M21.816 20.87l-5.974-6.02a7.839 7.839 0 001.88-5.097c0-4.343-3.534-7.875-7.876-7.875-4.342 0-7.875 3.532-7.875 7.875 0 4.342 3.533 7.875 7.875 7.875a7.837 7.837 0 004.946-1.753l5.983 6.029a.73.73 0 001.037.004.733.733 0 00.004-1.038"></path><path d="M0 0h24v24H0z" opacity="0.05" fill="none"></path></g></svg>